<svg xmlns="http://www.w3.org/2000/svg" width="32" height="32" viewBox="0 0 32 32" fill="none"><g clip-path="url(#clip0_115_266)"><path d="M23.5 0C20.9154 0 18.75 2.16544 18.75 4.75C18.75 7.33456 20.9154 9.4375 23.5 9.4375C26.0846 9.4375 28.25 7.33456 28.25 4.75C28.25 2.16544 26.0846 0 23.5 0Z" fill="white"></path><path d="M12.1875 3.8125C10.1193 3.8125 8.4375 5.49431 8.4375 7.5625C8.4375 9.63069 10.1193 11.3125 12.1875 11.3125C14.2557 11.3125 15.9375 9.63069 15.9375 7.5625C15.9375 5.49431 14.2557 3.8125 12.1875 3.8125Z" fill="white"></path><path d="M11.1154 19.1011L7.5 20.9091V32.0002H15V22.2487L11.1154 19.1011Z" fill="#EEB644"></path><path d="M16.875 22.3745V32.0001H22.5625V20.2793L16.875 22.3745Z" fill="#EEB644"></path><path d="M31.9801 14.8188C31.9926 15.0009 31.9696 15.1833 31.8764 15.3463L29.6928 19.1668C29.5207 19.4671 29.2433 19.6218 28.8524 19.6392C28.5072 19.6292 28.195 19.4305 28.0403 19.121L27.6787 18.3968L24.4375 19.5808V32H31.0625C31.5876 32 32 31.5874 32 31.0625V14.8749L31.9801 14.8188Z" fill="#EEB644"></path><path d="M0 24.6597V24.6626V31.0626C0 31.5876 0.412437 32.0001 0.9375 32.0001H5.625V21.8467L0 24.6597Z" fill="#EEB644"></path><path d="M3.75 9.4375C2.19913 9.4375 0.9375 10.6991 0.9375 12.25C0.9375 13.8009 2.19913 15.0625 3.75 15.0625C3.78525 15.0625 3.818 15.0534 3.85287 15.0521C4.05156 13.3558 4.76463 11.7685 5.91131 10.4724C5.39506 9.84594 4.62331 9.4375 3.75 9.4375Z" fill="white"></path><path d="M28.4193 9.12311C27.2173 10.457 25.4324 11.3125 23.5 11.3125C21.5676 11.3125 19.7827 10.457 18.5806 9.12305C16.4217 10.6528 15 13.1585 15 16V17.5672L16.2341 18.5644L25.9362 15.0369L25.7952 14.754C25.6404 14.4446 25.6689 14.0757 25.8684 13.7927C26.068 13.5117 26.4748 13.3697 26.8126 13.4045L31.1787 13.9511C31.4505 13.9846 31.6756 14.1499 31.8256 14.3741C31.3979 12.2168 30.154 10.3523 28.4193 9.12311Z" fill="white"></path><path d="M12.1875 13.1876C10.4364 13.1876 8.88919 12.3668 7.85681 11.1084C6.49919 12.3116 5.625 14.048 5.625 16.0001V17.6535L10.4114 15.2604C10.9955 14.9656 11.738 15.0105 12.2891 15.3766L13.125 16.0521V16.0001C13.125 14.9514 13.2931 13.9434 13.5869 12.9901C13.1369 13.1065 12.6733 13.1876 12.1875 13.1876Z" fill="white"></path><path d="M3.75 17.6533V16.9374C2.52169 16.9374 1.41106 16.4523 0.574375 15.6763C0.218375 16.3327 0 17.0746 0 17.8749V20.4655L3.89944 18.5159C3.81056 18.2424 3.75 17.9561 3.75 17.6533Z" fill="white"></path></g><defs><clipPath id="clip0_115_266"><rect width="32" height="32" fill="white"></rect></clipPath></defs></svg>