<svg width="14" height="14" viewBox="0 0 14 14" fill="none" xmlns="http://www.w3.org/2000/svg">
<path d="M11.3069 5.38413H10.2301C10.2296 4.95584 10.0593 4.54523 9.75646 4.24238C9.45362 3.93954 9.043 3.76922 8.61472 3.76879V2.69189C9.32848 2.69275 10.0128 2.97667 10.5175 3.48138C11.0222 3.98608 11.3061 4.67037 11.3069 5.38413Z" fill="#221B1D"/>
<path d="M13.4607 5.38447H12.3838C12.3826 4.38519 11.9852 3.42716 11.2785 2.72056C10.5719 2.01395 9.61392 1.61648 8.61463 1.61534V0.538451C9.89944 0.539877 11.1312 1.0509 12.0397 1.95939C12.9482 2.86789 13.4592 4.09967 13.4607 5.38447ZM9.33238 9.95158L10.5385 8.74546C10.7 8.58397 10.9052 8.47341 11.1289 8.42747C11.3526 8.38153 11.5848 8.40223 11.7969 8.487L13.2657 9.07499C13.4822 9.16161 13.6678 9.31112 13.7985 9.50422C13.9292 9.69732 13.9991 9.92516 13.9991 10.1583V12.8296C13.9995 12.9883 13.9675 13.1455 13.905 13.2915C13.8425 13.4374 13.7509 13.5691 13.6358 13.6784C13.5207 13.7878 13.3844 13.8725 13.2354 13.9273C13.0864 13.9822 12.9278 14.006 12.7693 13.9975C2.47311 13.3567 0.393627 4.63603 0.00756096 1.29658C-0.0111374 1.13332 0.00494021 0.967957 0.0547363 0.811357C0.104532 0.654756 0.186919 0.510473 0.296476 0.387997C0.406033 0.26552 0.540279 0.167626 0.690384 0.100754C0.840488 0.0338812 1.00305 -0.000454682 1.16738 4.54634e-06H3.79123C4.02441 -2.94132e-06 4.25225 0.0698581 4.44535 0.200576C4.63845 0.331293 4.78796 0.516871 4.87458 0.733369L5.46203 2.20225C5.5468 2.41428 5.5675 2.64652 5.52156 2.8702C5.47562 3.09387 5.36506 3.29916 5.20357 3.4606L3.99745 4.66672C3.99745 4.66672 4.6662 9.36844 9.33238 9.95158Z" fill="#221B1D"/>
</svg>
