<svg width="14" height="18" viewBox="0 0 14 18" fill="none" xmlns="http://www.w3.org/2000/svg">
<path d="M6.99998 18C5.73693 16.9228 4.56618 15.742 3.49999 14.4697C1.9 12.5591 8.78892e-07 9.71362 8.78892e-07 7.00214C-0.000693018 5.61738 0.409508 4.26352 1.17869 3.11193C1.94787 1.96033 3.04146 1.06276 4.32106 0.532804C5.60065 0.00284616 7.00873 -0.135673 8.3671 0.134775C9.72546 0.405224 10.973 1.07248 11.952 2.05211C12.6037 2.70084 13.1203 3.47237 13.4719 4.32204C13.8234 5.17171 14.0029 6.08265 14 7.00214C14 9.71362 12.1 12.5591 10.5 14.4697C9.43378 15.742 8.26304 16.9228 6.99998 18ZM6.99998 4.00273C6.20434 4.00273 5.44128 4.31874 4.87867 4.88124C4.31606 5.44374 3.99999 6.20665 3.99999 7.00214C3.99999 7.79764 4.31606 8.56055 4.87867 9.12305C5.44128 9.68555 6.20434 10.0016 6.99998 10.0016C7.79563 10.0016 8.55869 9.68555 9.1213 9.12305C9.68391 8.56055 9.99998 7.79764 9.99998 7.00214C9.99998 6.20665 9.68391 5.44374 9.1213 4.88124C8.55869 4.31874 7.79563 4.00273 6.99998 4.00273Z" fill="#221B1D"/>
</svg>
