<svg xmlns="http://www.w3.org/2000/svg" width="32" height="32" viewBox="0 0 32 32" fill="none"><g clip-path="url(#clip0_115_300)"><path d="M7.93625 24.7288C7.50175 25.0189 6.914 24.8978 6.62944 24.4597L3.97731 20.3759C3.34125 19.3964 3.13287 18.1834 3.40556 17.0479C3.60631 16.2117 4.05919 15.4572 4.6875 14.884V10.015C4.6875 8.70086 3.612 7.6003 2.298 7.62542C1.02469 7.64986 0 8.68967 0 9.9688V19.8125C0 19.9363 0.0245 20.0589 0.072125 20.1731L4.06238 29.7502V31.0625C4.06238 31.5803 4.48213 32 4.99988 32H13.4326C13.9503 32 14.3701 31.5803 14.3701 31.0625V25.9875C14.37 24.7022 13.9967 23.4552 13.2905 22.3815L9.57131 16.7265C8.87219 15.6635 7.46544 15.33 6.36356 15.966C5.17175 16.654 4.80044 18.2005 5.54987 19.3546L8.20194 23.4384C8.48144 23.8689 8.363 24.4439 7.93625 24.7288Z" fill="white"></path><path d="M24.0637 24.7288C24.4982 25.0189 25.0859 24.8978 25.3705 24.4597L28.0226 20.3759C28.6587 19.3964 28.8671 18.1834 28.5944 17.0479C28.3936 16.2117 27.9408 15.4572 27.3124 14.884V10.015C27.3124 8.70086 28.3879 7.6003 29.7019 7.62542C30.9753 7.64986 31.9999 8.68967 31.9999 9.9688V19.8125C31.9999 19.9363 31.9754 20.0589 31.9278 20.1731L27.9376 29.7502V31.0625C27.9376 31.5803 27.5178 32 27.0001 32H18.5674C18.0496 32 17.6299 31.5803 17.6299 31.0625V25.9875C17.6299 24.7022 18.0032 23.4552 18.7094 22.3815L22.4286 16.7265C23.1278 15.6635 24.5345 15.33 25.6364 15.966C26.8282 16.654 27.1995 18.2005 26.4501 19.3546L23.798 23.4384C23.5185 23.8689 23.6369 24.4439 24.0637 24.7288Z" fill="white"></path><path d="M10.27 6.69844L16 2.87844L21.73 6.69844C21.8898 6.805 22.0704 6.856 22.2492 6.856C22.5521 6.856 22.8494 6.70938 23.03 6.43844C23.3173 6.00763 23.2008 5.42556 22.77 5.13838L16.52 0.971688C16.2051 0.761813 15.7949 0.761813 15.48 0.971688L13.1875 2.49994V0.9375C13.1875 0.41975 12.7677 0 12.25 0C11.7322 0 11.3125 0.41975 11.3125 0.9375V3.74994L9.22997 5.13831C8.7991 5.42556 8.68272 6.00763 8.96997 6.43838C9.25722 6.86919 9.83935 6.98563 10.27 6.69844Z" fill="#EEB644"></path><path d="M22.25 11.25H21.3125V8.67352L16 5.13184L10.6875 8.67352V11.25H9.75C9.23225 11.25 8.8125 11.6697 8.8125 12.1875C8.8125 12.7052 9.23225 13.125 9.75 13.125H15.0625V9.37496C15.0625 8.85721 15.4823 8.43746 16 8.43746C16.5177 8.43746 16.9375 8.85721 16.9375 9.37496V13.125H22.25C22.7677 13.125 23.1875 12.7052 23.1875 12.1875C23.1875 11.6697 22.7677 11.25 22.25 11.25Z" fill="#EEB644"></path></g><defs><clipPath id="clip0_115_300"><rect width="32" height="32" fill="white"></rect></clipPath></defs></svg>