<svg xmlns="http://www.w3.org/2000/svg" width="32" height="32" viewBox="0 0 32 32" fill="none"><g clip-path="url(#clip0_115_313)"><path d="M31.5302 9.06739L16.4786 0.131391C16.1835 -0.0437969 15.8164 -0.0437969 15.5214 0.131391L0.469814 9.06739C0.0245639 9.3317 -0.122061 9.90689 0.142251 10.3521C0.406564 10.7973 0.981751 10.944 1.427 10.6797L3.33406 9.54751V25.0598C3.33406 25.5775 3.75381 25.9973 4.27156 25.9973H7.8215L7.82144 11.9553C7.82144 11.6181 8.0025 11.3069 8.29563 11.1403L15.5368 7.02414C15.8241 6.86089 16.1761 6.86089 16.4634 7.02414L23.7045 11.1403C23.9976 11.3069 24.1787 11.6181 24.1787 11.9553V25.9973H27.7286C28.2464 25.9973 28.6661 25.5775 28.6661 25.0598V9.54751L30.5731 10.6797C31.0193 10.9446 31.5941 10.7964 31.8579 10.3521C32.1221 9.90689 31.9754 9.3317 31.5302 9.06739Z" fill="#EEB644"></path><path d="M9.69629 12.5007C9.69629 13.7125 9.69629 32.2467 9.69629 31.0626C9.69629 31.5802 10.116 32.0001 10.6338 32.0001H21.3661C21.8839 32.0001 22.3036 31.5804 22.3036 31.0626V12.5007L15.9999 8.91748L9.69629 12.5007ZM18.6343 19.757C18.9881 20.135 18.9684 20.7283 18.5904 21.0821C18.23 21.4193 17.674 21.4172 17.3163 21.0887C17.2046 20.977 16.7105 20.6455 16.021 20.6455C15.8885 20.6455 15.7429 20.6717 15.6057 20.713C15.0999 20.8654 15.0432 21.3104 15.2622 21.4988C15.5102 21.6071 16.2599 21.9297 17.0639 22.2263C20.1138 23.3514 19.4749 26.6199 16.9484 27.2391V27.3335C16.9484 27.8513 16.5287 28.271 16.0109 28.271C15.4932 28.271 15.0734 27.8513 15.0734 27.3335V27.1944C14.3219 26.9978 13.6454 26.5985 13.1344 26.0346C12.7867 25.6509 12.8158 25.0581 13.1995 24.7104C13.5832 24.3626 14.176 24.3918 14.5237 24.7754C14.9114 25.2032 15.5227 25.4585 16.1589 25.4585C16.7516 25.4585 17.1672 25.1147 17.2266 24.7823C17.3039 24.3492 16.625 24.0629 16.415 23.9855C16.1402 23.8841 14.525 23.2607 14.2825 23.1026C12.6643 22.0476 13.0132 19.5303 15.0735 18.9154V18.771C15.0735 18.2533 15.4932 17.8335 16.011 17.8335C16.5287 17.8335 16.9485 18.2533 16.9485 18.771V18.8796C17.8279 19.0962 18.4638 19.5747 18.6343 19.757ZM17.8749 14.2189C17.8749 14.7366 17.4552 15.1564 16.9374 15.1564H15.0624C14.5447 15.1564 14.1249 14.7366 14.1249 14.2189C14.1249 13.7011 14.5447 13.2814 15.0624 13.2814H16.9374C17.4552 13.2814 17.8749 13.7011 17.8749 14.2189Z" fill="white"></path></g><defs><clipPath id="clip0_115_313"><rect width="32" height="32" fill="white"></rect></clipPath></defs></svg>