<svg width="82" height="82" viewBox="0 0 82 82" fill="none" xmlns="http://www.w3.org/2000/svg">
<g id="Group 58">
<g id="Group 57">
<circle id="Ellipse 14" cx="41" cy="41" r="41" fill="#221B1D"/>
</g>
<g id="Group 56">
<path id="Vector" d="M42.2464 20.9639C42.915 21.1266 43.6016 21.234 44.2474 21.452C45.6478 21.9536 46.8845 22.8282 47.8241 23.9814C48.7637 25.1346 49.3704 26.5225 49.5787 27.9953H43.8309V30.3348H49.6568V33.8489H43.8391V36.2014H49.6503V39.7301H43.8326V42.0695H49.5592C49.2875 44.9979 46.6503 48.8439 41.9129 49.1107C39.8665 49.2255 37.8514 48.5689 36.2656 47.2704C34.6797 45.9719 33.6384 44.126 33.3473 42.0972H39.0951V39.7577H33.2741V36.2355H39.087V33.8814H33.2676V30.369H39.0934V28.0132H33.3457C33.4421 27.1649 33.6924 26.3412 34.0843 25.5827C35.4313 22.9797 37.5495 21.4488 40.46 21.0274C40.5354 21.0109 40.6094 20.9886 40.6813 20.9607L42.2464 20.9639Z" fill="#E5AE4E"/>
<path id="Vector_2" d="M32.0934 61.0001V58.6883H40.2636V53.7962C36.0906 53.2821 32.7929 51.3039 30.5023 47.7312C29.2136 45.7012 28.5359 43.3434 28.55 40.939H30.8748C30.9968 44.51 32.4464 47.4156 35.3634 49.5273C37.3083 50.9536 39.6984 51.6389 42.1036 51.46C47.866 51.1021 52.0846 46.2654 52.0537 40.9406H54.3085C54.6485 46.2133 50.2673 53.0609 42.6551 53.793V58.6736H50.8302V60.9985L32.0934 61.0001Z" fill="#E5AE4E"/>
</g>
</g>
</svg>
