<svg width="100" height="17" viewBox="0 0 100 17" fill="none" xmlns="http://www.w3.org/2000/svg">
<g id="Group 19">
<path id="Star 1" d="M8.02471 0L9.82637 5.54494H15.6567L10.9399 8.9719L12.7415 14.5168L8.02471 11.0899L3.3079 14.5168L5.10956 8.9719L0.392757 5.54494H6.22305L8.02471 0Z" fill="#D39529"/>
<path id="Star 2" d="M29.0123 0L30.8139 5.54494H36.6442L31.9274 8.9719L33.7291 14.5168L29.0123 11.0899L24.2955 14.5168L26.0971 8.9719L21.3803 5.54494H27.2106L29.0123 0Z" fill="#D39529"/>
<path id="Star 3" d="M50.0003 0L51.802 5.54494H57.6322L52.9154 8.9719L54.7171 14.5168L50.0003 11.0899L45.2835 14.5168L47.0851 8.9719L42.3683 5.54494H48.1986L50.0003 0Z" fill="#D39529"/>
<path id="Star 4" d="M70.9878 0L72.7895 5.54494H78.6198L73.903 8.9719L75.7046 14.5168L70.9878 11.0899L66.271 14.5168L68.0727 8.9719L63.3559 5.54494H69.1862L70.9878 0Z" fill="#D39529"/>
<path id="Star 5" d="M91.9754 0L93.777 5.54494H99.6073L94.8905 8.9719L96.6922 14.5168L91.9754 11.0899L87.2586 14.5168L89.0602 8.9719L84.3434 5.54494H90.1737L91.9754 0Z" fill="#D39529"/>
</g>
</svg>
